<svg width="371" height="372" viewBox="0 0 371 372" fill="none" xmlns="http://www.w3.org/2000/svg">
<path d="M207.804 19.4335C207.804 30.1664 199.103 38.8671 188.37 38.8671C177.637 38.8671 168.937 30.1664 168.937 19.4335C168.937 8.70069 177.637 0 188.37 0C199.103 0 207.804 8.70069 207.804 19.4335Z" fill="white"/>
<path d="M136.705 57.8271C136.705 68.5599 128.004 77.2606 117.271 77.2606C106.539 77.2606 97.8379 68.5599 97.8379 57.8271C97.8379 47.0942 106.539 38.3936 117.271 38.3936C128.004 38.3936 136.705 47.0942 136.705 57.8271Z" fill="white"/>
<path d="M60.8671 100.959C60.8671 111.692 52.1664 120.392 41.4335 120.392C30.7007 120.392 22 111.692 22 100.959C22 90.2261 30.7007 81.5254 41.4335 81.5254C52.1664 81.5254 60.8671 90.2261 60.8671 100.959Z" fill="white"/>
<path d="M60.8671 185.804C60.8671 196.536 52.1664 205.237 41.4335 205.237C30.7007 205.237 22 196.536 22 185.804C22 175.071 30.7007 166.37 41.4335 166.37C52.1664 166.37 60.8671 175.071 60.8671 185.804Z" fill="white"/>
<path d="M60.8671 270.646C60.8671 281.379 52.1664 290.08 41.4335 290.08C30.7007 290.08 22 281.379 22 270.646C22 259.914 30.7007 251.213 41.4335 251.213C52.1664 251.213 60.8671 259.914 60.8671 270.646Z" fill="white"/>
<path d="M276.057 57.8271C276.057 68.5599 267.357 77.2606 256.624 77.2606C245.891 77.2606 237.19 68.5599 237.19 57.8271C237.19 47.0942 245.891 38.3936 256.624 38.3936C267.357 38.3936 276.057 47.0942 276.057 57.8271Z" fill="white"/>
<path d="M207.804 100.959C207.804 111.692 199.103 120.392 188.37 120.392C177.637 120.392 168.937 111.692 168.937 100.959C168.937 90.2261 177.637 81.5254 188.37 81.5254C199.103 81.5254 207.804 90.2261 207.804 100.959Z" fill="white"/>
<path d="M130.069 143.143C130.069 153.876 121.369 162.577 110.636 162.577C99.9028 162.577 91.2021 153.876 91.2021 143.143C91.2021 132.411 99.9028 123.71 110.636 123.71C121.369 123.71 130.069 132.411 130.069 143.143Z" fill="white"/>
<path d="M130.069 227.04C130.069 237.773 121.369 246.474 110.636 246.474C99.9028 246.474 91.2021 237.773 91.2021 227.04C91.2021 216.307 99.9028 207.606 110.636 207.606C121.369 207.606 130.069 216.307 130.069 227.04Z" fill="white"/>
<path d="M136.705 313.78C136.705 324.513 128.004 333.214 117.271 333.214C106.539 333.214 97.8379 324.513 97.8379 313.78C97.8379 303.047 106.539 294.347 117.271 294.347C128.004 294.347 136.705 303.047 136.705 313.78Z" fill="white"/>
<path d="M207.804 351.699C207.804 362.432 199.103 371.133 188.37 371.133C177.637 371.133 168.937 362.432 168.937 351.699C168.937 340.966 177.637 332.266 188.37 332.266C199.103 332.266 207.804 340.966 207.804 351.699Z" fill="white"/>
<path d="M276.057 313.78C276.057 324.513 267.357 333.214 256.624 333.214C245.891 333.214 237.19 324.513 237.19 313.78C237.19 303.047 245.891 294.347 256.624 294.347C267.357 294.347 276.057 303.047 276.057 313.78Z" fill="white"/>
<path d="M350 270.646C350 281.379 341.299 290.08 330.566 290.08C319.833 290.08 311.133 281.379 311.133 270.646C311.133 259.914 319.833 251.213 330.566 251.213C341.299 251.213 350 259.914 350 270.646Z" fill="white"/>
<path d="M207.804 270.646C207.804 281.379 199.103 290.08 188.37 290.08C177.637 290.08 168.937 281.379 168.937 270.646C168.937 259.914 177.637 251.213 188.37 251.213C199.103 251.213 207.804 259.914 207.804 270.646Z" fill="white"/>
<path d="M350 100.959C350 111.692 341.299 120.392 330.566 120.392C319.833 120.392 311.133 111.692 311.133 100.959C311.133 90.2261 319.833 81.5254 330.566 81.5254C341.299 81.5254 350 90.2261 350 100.959Z" fill="white"/>
<path d="M283.168 143.143C283.168 153.876 274.467 162.577 263.734 162.577C253.001 162.577 244.301 153.876 244.301 143.143C244.301 132.411 253.001 123.71 263.734 123.71C274.467 123.71 283.168 132.411 283.168 143.143Z" fill="white"/>
<path d="M283.168 231.78C283.168 242.513 274.467 251.214 263.734 251.214C253.001 251.214 244.301 242.513 244.301 231.78C244.301 221.047 253.001 212.347 263.734 212.347C274.467 212.347 283.168 221.047 283.168 231.78Z" fill="white"/>
<path d="M37.6416 100.959H46.1734V269.225H37.6416V100.959Z" fill="white"/>
<path d="M105.896 143.618H114.428V228.936H105.896V143.618Z" fill="white"/>
<path d="M251.688 59.0664L260.185 58.3018L267.789 142.804L259.291 143.569L251.688 59.0664Z" fill="white"/>
<path d="M328.991 98.4844L333.531 105.708L266.652 147.736L262.112 140.512L328.991 98.4844Z" fill="white"/>
<path d="M328.991 275.344L333.531 268.12L266.652 226.092L262.112 233.316L328.991 275.344Z" fill="white"/>
<path d="M41.6533 105.878L46.245 98.6871L112.433 140.951L107.842 148.142L41.6533 105.878Z" fill="white"/>
<path d="M41.6533 265.986L46.245 273.177L112.433 230.913L107.842 223.723L41.6533 265.986Z" fill="white"/>
<path d="M187.422 23.8262L194.757 19.4693L266.313 139.946L258.978 144.303L187.422 23.8262Z" fill="white"/>
<path d="M187.786 23.9014L192.119 16.5517L330.817 98.3191L326.484 105.669L187.786 23.9014Z" fill="white"/>
<path d="M187.786 348.149L192.119 355.499L330.817 273.732L326.484 266.382L187.786 348.149Z" fill="white"/>
<path d="M115.535 62.4805L119.701 55.0349L265.678 136.713L261.512 144.158L115.535 62.4805Z" fill="white"/>
<path d="M115.535 311.089L119.701 318.534L265.678 236.857L261.512 229.411L115.535 311.089Z" fill="white"/>
<path d="M187.422 349.413L194.757 353.77L266.313 233.293L258.978 228.936L187.422 349.413Z" fill="white"/>
<path d="M39.0635 190.635L46.399 186.278L120.554 311.131L113.218 315.488L39.0635 190.635Z" fill="white"/>
<path d="M39.5381 182.679L46.8736 187.036L121.819 60.8509L114.484 56.4941L39.5381 182.679Z" fill="white"/>
<path d="M108.008 231.512L115.267 227.029L190.993 349.676L183.733 354.158L108.008 231.512Z" fill="white"/>
<path d="M108.74 140.658L116 145.14L191.725 22.4941L184.466 18.0118L108.74 140.658Z" fill="white"/>
<path d="M42.9268 181.443L47.3187 188.758L257.18 62.7492L252.788 55.4346L42.9268 181.443Z" fill="white"/>
<path d="M42.9268 191.222L47.3187 183.907L257.18 309.916L252.788 317.23L42.9268 191.222Z" fill="white"/>
<path d="M40.001 98.5225L44.1575 105.973L190.782 24.177L186.625 16.7262L40.001 98.5225Z" fill="white"/>
<path d="M40.001 274.307L44.1575 266.856L190.782 348.652L186.625 356.103L40.001 274.307Z" fill="white"/>
<path d="M268.46 232.545L259.962 231.78L252.359 316.283L260.856 317.047L268.46 232.545Z" fill="white"/>
</svg>
